# xmcd
#
# Track frame offsets:
#	150
#	12095
#	24195
#	28855
#	48840
#	61777
#	75892
#	102840
#	117129
#	128652
#	144192
#	154220
#	168055
#	200852
#
# Disc length: 2840 seconds
#
# Revision: 1
# Processed by: cddbd v1.5.1PL0 Copyright (c) Steve Scherf et al.
# Submitted via: CDex 1.50Beta5
#
DISCID=9d0b160e
DTITLE=ハンサム兄弟 - 理由なきハンサム
DYEAR=1900
DGENRE=
TTITLE0=TOM WAITS ME ON THE MOON
TTITLE1=バス旅行
TTITLE2=O.K.ディスクジョッキー
TTITLE3=ひとつしか色のない虹の上で
TTITLE4=うまれる
TTITLE5=美少年
TTITLE6=枯れ木に花を咲かせましょう
TTITLE7=お兄さんのまちシブヤ
TTITLE8=チルチルミチルとハルマゲドン
TTITLE9=うさぎの目は絶望の証
TTITLE10=ワガママカミサマン
TTITLE11=どーなっとルンバ
TTITLE12=サイボーグ
TTITLE13=あのねのねこのめがね
EXTD=
EXTT0=
EXTT1=
EXTT2=
EXTT3=
EXTT4=
EXTT5=
EXTT6=
EXTT7=
EXTT8=
EXTT9=
EXTT10=
EXTT11=
EXTT12=
EXTT13=
PLAYORDER=
